<?xml version="1.0" encoding="iso-8859-1"?>
<!-- Generator: Adobe Illustrator 19.0.0, SVG Export Plug-In . SVG Version: 6.00 Build 0)  -->
<svg version="1.1" id="Capa_1" xmlns="http://www.w3.org/2000/svg" xmlns:xlink="http://www.w3.org/1999/xlink" x="0px" y="0px"
	 viewBox="0 0 496.485 496.485" style="enable-background:new 0 0 496.485 496.485;" xml:space="preserve">
<circle style="fill:#E1E6E9;" cx="248.242" cy="248.242" r="248.242"/>
<polygon style="fill:#2BA1DB;" points="248.242,7.758 168.339,145.067 168.339,488.727 328.145,488.727 328.145,145.067 "/>
<path style="fill:#193651;" d="M328.145,496.485H168.339c-4.655,0-7.758-3.103-7.758-7.758V145.067c0-1.552,0-3.103,0.776-3.879
	L241.261,3.879c3.103-4.655,10.861-4.655,13.188,0l79.903,137.309c0.776,1.552,0.776,2.327,0.776,3.879v343.661
	C335.903,493.382,332.024,496.485,328.145,496.485z M176.097,480.97h144.291V147.394L248.242,23.273l-72.145,124.121V480.97z"/>
<g>
	<polygon style="fill:#FFFFFF;" points="199.37,457.697 199.37,153.6 248.242,69.818 297.115,153.6 297.115,457.697 	"/>
	<rect x="224.97" y="424.339" style="fill:#FFFFFF;" width="46.545" height="64.388"/>
</g>
<path style="fill:#193651;" d="M271.515,496.485H224.97c-4.655,0-7.758-3.103-7.758-7.758v-64.388c0-4.655,3.103-7.758,7.758-7.758
	h46.545c4.655,0,7.758,3.103,7.758,7.758v64.388C279.273,493.382,275.394,496.485,271.515,496.485z M232.727,480.97h31.03v-48.873
	h-31.03V480.97z"/>
<circle style="fill:#FFFFFF;" cx="248.242" cy="211.006" r="24.824"/>
<path style="fill:#193651;" d="M248.242,242.812c-17.842,0-32.582-14.739-32.582-32.582s14.739-32.582,32.582-32.582
	c17.842,0,32.582,14.739,32.582,32.582C280.824,228.848,266.085,242.812,248.242,242.812z M248.242,193.939
	c-9.309,0-17.067,7.758-17.067,17.067s7.758,17.067,17.067,17.067c9.309,0,17.067-7.758,17.067-17.067
	C265.309,200.921,257.552,193.939,248.242,193.939z"/>
<polygon style="fill:#FDBE5E;" points="416.582,416.582 416.582,344.436 381.673,344.436 381.673,271.515 328.145,271.515 
	328.145,488.727 449.939,488.727 449.939,416.582 "/>
<path style="fill:#193651;" d="M449.939,496.485H328.145c-4.655,0-7.758-3.103-7.758-7.758V271.515c0-4.655,3.103-7.758,7.758-7.758
	h53.527c4.655,0,7.758,3.103,7.758,7.758v64.388h27.152c4.655,0,7.758,3.103,7.758,7.758v64.388h25.6
	c4.655,0,7.758,3.103,7.758,7.758v72.921C457.697,493.382,454.594,496.485,449.939,496.485z M335.903,480.97h106.279v-56.63h-25.6
	c-4.655,0-7.758-3.103-7.758-7.758v-64.388h-27.152c-4.655,0-7.758-3.103-7.758-7.758v-65.164h-38.012V480.97z"/>
<polygon style="fill:#FFFFFF;" points="335.903,480.97 335.903,319.612 355.297,319.612 355.297,382.448 385.552,382.448 
	385.552,445.285 414.255,445.285 414.255,480.97 "/>
<polygon style="fill:#FDBE5E;" points="114.812,344.436 79.903,344.436 79.903,416.582 46.545,416.582 46.545,488.727 
	168.339,488.727 168.339,271.515 114.812,271.515 "/>
<path style="fill:#193651;" d="M168.339,496.485H46.545c-4.655,0-7.758-3.103-7.758-7.758v-72.145c0-4.655,3.103-7.758,7.758-7.758
	h25.6v-64.388c0-4.655,3.103-7.758,7.758-7.758h27.152v-65.164c0-4.655,3.103-7.758,7.758-7.758h53.527
	c4.655,0,7.758,3.103,7.758,7.758v217.212C176.097,493.382,172.994,496.485,168.339,496.485z M54.303,480.97h106.279V279.273H122.57
	v64.388c0,4.655-3.103,7.758-7.758,7.758H87.661v64.388c0,4.655-3.103,7.758-7.758,7.758h-25.6V480.97z"/>
<polygon style="fill:#FFFFFF;" points="160.582,480.97 160.582,319.612 141.188,319.612 141.188,382.448 110.933,382.448 
	110.933,445.285 82.23,445.285 82.23,480.97 "/>
<g>
	<rect x="217.212" y="152.048" style="fill:#193651;" width="15.515" height="15.515"/>
	<rect x="240.485" y="121.018" style="fill:#193651;" width="15.515" height="15.515"/>
	<rect x="240.485" y="263.758" style="fill:#193651;" width="15.515" height="15.515"/>
	<rect x="240.485" y="302.545" style="fill:#193651;" width="15.515" height="15.515"/>
	<rect x="240.485" y="341.333" style="fill:#193651;" width="15.515" height="15.515"/>
	<rect x="240.485" y="380.121" style="fill:#193651;" width="15.515" height="15.515"/>
	<rect x="263.758" y="152.048" style="fill:#193651;" width="15.515" height="15.515"/>
</g>
<g>
</g>
<g>
</g>
<g>
</g>
<g>
</g>
<g>
</g>
<g>
</g>
<g>
</g>
<g>
</g>
<g>
</g>
<g>
</g>
<g>
</g>
<g>
</g>
<g>
</g>
<g>
</g>
<g>
</g>
</svg>
